<?xml version="1.0" encoding="UTF-8"?>
<svg xmlns="http://www.w3.org/2000/svg" viewBox="0 0 1080 1080" role="img" aria-label="Step 1: know your spec">
  <rect width="1080" height="1080" fill="#faf5ec" />
  <!-- soft scene backdrop (faded) -->
  <g opacity="0.15">
    <clipPath id="csbg-ready-to-build-get-quotes-1">
      <rect x="0" y="0" width="1080" height="1080" />
    </clipPath>
    <g clip-path="url(#csbg-ready-to-build-get-quotes-1)">
      <g transform="translate(0 200) scale(0.9 1.4)">
    <rect width="1200" height="630" fill="#062a34" />
    
  <circle cx="180" cy="110" r="120" fill="#3aa681" fill-opacity="0.35" />
  <circle cx="180" cy="110" r="84" fill="#3aa681" fill-opacity="0.55" />
  <circle cx="180" cy="110" r="48" fill="#3aa681" fill-opacity="0.85" />
    <ellipse cx="600" cy="70" rx="700" ry="130" fill="#3aa681" fill-opacity="0.15" />

    <!-- water -->
    <rect x="0" y="360" width="1200" height="270" fill="#ff6a5b" fill-opacity="0.35" />
    
  <g fill="#faf5ec" fill-opacity="0.2">
    <path d="M0 470 Q 150 445 300 470 T 600 470 T 900 470 T 1200 470 L 1200 630 L 0 630 Z" />
  </g>
  <g fill="#faf5ec" fill-opacity="0.12">
    <path d="M0 490 Q 150 465 300 490 T 600 490 T 900 490 T 1200 490 L 1200 630 L 0 630 Z" />
  </g>

    <!-- Left: finished dock section -->
    <g>
      <rect x="0" y="340" width="480" height="25" fill="#faf5ec" />
      <g stroke="#0f1b1d" stroke-opacity="0.28" stroke-width="1.5">
        <line x1="60" y1="340" x2="60" y2="365" />
        <line x1="120" y1="340" x2="120" y2="365" />
        <line x1="180" y1="340" x2="180" y2="365" />
        <line x1="240" y1="340" x2="240" y2="365" />
        <line x1="300" y1="340" x2="300" y2="365" />
        <line x1="360" y1="340" x2="360" y2="365" />
        <line x1="420" y1="340" x2="420" y2="365" />
      </g>
      <rect x="70" y="365" width="10" height="180" fill="#0f1b1d" fill-opacity="0.65" />
      <rect x="230" y="365" width="10" height="180" fill="#0f1b1d" fill-opacity="0.65" />
      <rect x="390" y="365" width="10" height="180" fill="#0f1b1d" fill-opacity="0.65" />
    </g>

    <!-- Middle: framing (no decking yet) -->
    <g stroke="#0f1b1d" stroke-opacity="0.6" stroke-width="4" fill="none">
      <line x1="480" y1="345" x2="800" y2="345" />
      <line x1="480" y1="360" x2="800" y2="360" />
      <line x1="510" y1="345" x2="510" y2="365" />
      <line x1="560" y1="345" x2="560" y2="365" />
      <line x1="610" y1="345" x2="610" y2="365" />
      <line x1="660" y1="345" x2="660" y2="365" />
      <line x1="710" y1="345" x2="710" y2="365" />
      <line x1="760" y1="345" x2="760" y2="365" />
    </g>
    <rect x="540" y="365" width="10" height="180" fill="#0f1b1d" fill-opacity="0.65" />
    <rect x="700" y="365" width="10" height="180" fill="#0f1b1d" fill-opacity="0.65" />

    <!-- Right: piling being driven -->
    <g>
      <rect x="890" y="200" width="14" height="345" fill="#0f1b1d" fill-opacity="0.75" />
      <!-- piling driver hammer -->
      <g transform="translate(880 180)">
        <rect x="0" y="0" width="34" height="50" fill="#ff6a5b" />
        <rect x="4" y="4" width="26" height="10" fill="#062a34" />
        <rect x="4" y="20" width="26" height="10" fill="#062a34" />
        <rect x="4" y="36" width="26" height="10" fill="#062a34" />
      </g>
      <!-- guide rails -->
      <line x1="864" y1="140" x2="864" y2="360" stroke="#ff6a5b" stroke-width="4" />
      <line x1="930" y1="140" x2="930" y2="360" stroke="#ff6a5b" stroke-width="4" />
      <line x1="864" y1="140" x2="930" y2="140" stroke="#ff6a5b" stroke-width="4" />
      <!-- cable -->
      <line x1="897" y1="140" x2="897" y2="80" stroke="#0f1b1d" stroke-opacity="0.6" stroke-width="2" />
      <circle cx="897" cy="80" r="10" fill="#0f1b1d" fill-opacity="0.65" />
    </g>

    <!-- Toolbox in foreground -->
    <g transform="translate(1000 480)">
      <rect x="0" y="0" width="140" height="70" rx="6" fill="#ff6a5b" />
      <rect x="10" y="15" width="120" height="8" fill="#062a34" fill-opacity="0.3" />
      <path d="M 55 0 Q 70 -30 85 0" stroke="#0f1b1d" stroke-width="6" fill="none" stroke-linecap="round" />
      <!-- hammer sticking out -->
      <g transform="translate(50 -15) rotate(-30)">
        <rect x="0" y="0" width="6" height="55" fill="#8a5a35" />
        <rect x="-8" y="-3" width="24" height="14" rx="2" fill="#0f1b1d" fill-opacity="0.75" />
      </g>
    </g>

    <!-- Big "OK" checkmark badge (left section done) -->
    <g transform="translate(240 260)">
      <circle r="42" fill="#3aa681" />
      <path d="M -18 0 L -6 14 L 20 -14" stroke="#faf5ec" stroke-width="6" fill="none" stroke-linecap="round" stroke-linejoin="round" />
    </g></g>
    </g>
  </g>

  <!-- Big number pill -->
  <g transform="translate(80 100)">
    <circle cx="80" cy="80" r="80" fill="#ff6a5b" />
    <text x="80" y="105" font-family="'Fraunces', serif" font-size="80" fill="#faf5ec" font-weight="900" text-anchor="middle">1</text>
  </g>
  <text x="240" y="150" font-family="'Hanken Grotesk', sans-serif" font-size="22" fill="#ff6a5b" fill-opacity="0.75" letter-spacing="5" font-weight="700">1 / 4</text>
  <text x="240" y="195" font-family="'Fraunces', serif" font-size="34" fill="#ff6a5b" font-weight="700">Getting Started</text>

  <!-- Title -->
  <text x="80" y="370" font-family="'Fraunces', serif" font-size="70" fill="#ff6a5b" font-weight="700">
    <tspan x="80" dy="0">Step 1: know your</tspan><tspan x="80" dy="80">spec</tspan>
  </text>

  <!-- Body -->
  <text x="80" y="720" font-family="'Hanken Grotesk', sans-serif" font-size="32" fill="#ff6a5b" fill-opacity="0.75" font-weight="500">
    <tspan x="80" dy="0">Size, materials, add-ons. Use</tspan><tspan x="80" dy="44">our cost calculator to lock a</tspan><tspan x="80" dy="44">range first.</tspan>
  </text>

  <line x1="80" y1="960" x2="1000" y2="960" stroke="#ff6a5b" stroke-opacity="0.25" stroke-width="2" />
  <text x="80" y="1010" font-family="'Hanken Grotesk', sans-serif" font-size="22" fill="#ff6a5b" fill-opacity="0.7" font-weight="700">Keep swiping →</text>
  <text x="1000" y="1010" font-family="'Fraunces', serif" font-size="24" fill="#ff6a5b" font-weight="700" text-anchor="end">MyDockGuide</text>
</svg>