<?xml version="1.0" encoding="UTF-8"?>
<svg xmlns="http://www.w3.org/2000/svg" viewBox="0 0 1080 1080" role="img" aria-label="2. FDEP">
  <rect width="1080" height="1080" fill="#faf5ec" />
  <!-- soft scene backdrop (faded) -->
  <g opacity="0.15">
    <clipPath id="csbg-do-i-need-a-permit-to-build-a-dock-in-tampa-bay-2">
      <rect x="0" y="0" width="1080" height="1080" />
    </clipPath>
    <g clip-path="url(#csbg-do-i-need-a-permit-to-build-a-dock-in-tampa-bay-2)">
      <g transform="translate(0 200) scale(0.9 1.4)">
    <rect width="1200" height="630" fill="#062a34" />
    
  <circle cx="1050" cy="130" r="140" fill="#ff6a5b" fill-opacity="0.35" />
  <circle cx="1050" cy="130" r="98" fill="#ff6a5b" fill-opacity="0.55" />
  <circle cx="1050" cy="130" r="56" fill="#ff6a5b" fill-opacity="0.85" />
    
  <g fill="#faf5ec" fill-opacity="0.15">
    <path d="M0 470 Q 150 445 300 470 T 600 470 T 900 470 T 1200 470 L 1200 630 L 0 630 Z" />
  </g>
  <g fill="#faf5ec" fill-opacity="0.09">
    <path d="M0 490 Q 150 465 300 490 T 600 490 T 900 490 T 1200 490 L 1200 630 L 0 630 Z" />
  </g>

    <!-- Tilted document -->
    <g transform="translate(360 90) rotate(-8)">
      <rect x="0" y="0" width="480" height="600" rx="10" fill="#faf5ec" />
      <rect x="0" y="0" width="480" height="80" fill="#0c3b46" fill-opacity="0.85" />
      <text x="30" y="52" font-family="'Fraunces', serif" font-size="24" fill="#faf5ec" font-weight="700" letter-spacing="4">PERMIT · TAMPA BAY</text>

      <!-- form fields -->
      <g fill="#0f1b1d" fill-opacity="0.15">
        <rect x="30" y="120" width="200" height="8" rx="4" />
        <rect x="30" y="140" width="360" height="16" rx="4" fill-opacity="0.08" />
        <rect x="30" y="180" width="180" height="8" rx="4" />
        <rect x="30" y="200" width="300" height="16" rx="4" fill-opacity="0.08" />
        <rect x="30" y="240" width="160" height="8" rx="4" />
        <rect x="30" y="260" width="380" height="16" rx="4" fill-opacity="0.08" />
        <rect x="30" y="300" width="220" height="8" rx="4" />
        <rect x="30" y="320" width="340" height="16" rx="4" fill-opacity="0.08" />
        <rect x="30" y="360" width="180" height="8" rx="4" />
        <rect x="30" y="380" width="260" height="16" rx="4" fill-opacity="0.08" />
      </g>

      <!-- signature line -->
      <line x1="30" y1="530" x2="240" y2="530" stroke="#0f1b1d" stroke-opacity="0.4" stroke-width="2" />
      <text x="30" y="555" font-family="'Hanken Grotesk', sans-serif" font-size="12" fill="#0f1b1d" fill-opacity="0.5">FDEP · ACOE · COUNTY</text>
    </g>

    <!-- Approval stamp -->
    <g transform="translate(760 340) rotate(-14)">
      <circle cx="0" cy="0" r="120" fill="none" stroke="#ff6a5b" stroke-width="8" />
      <circle cx="0" cy="0" r="95" fill="none" stroke="#ff6a5b" stroke-width="3" />
      <text x="0" y="-12" font-family="'Fraunces', serif" font-size="34" fill="#ff6a5b" font-weight="900" text-anchor="middle" letter-spacing="4">APPROVED</text>
      <text x="0" y="20" font-family="'Hanken Grotesk', sans-serif" font-size="14" fill="#ff6a5b" font-weight="700" text-anchor="middle" letter-spacing="3">HILLSBOROUGH · 2026</text>
      <path d="M -60 45 L 60 45" stroke="#ff6a5b" stroke-width="2" />
    </g>

    <!-- Small dock silhouette at bottom -->
    <g transform="translate(0 490)" fill="#faf5ec" fill-opacity="0.45">
      <rect x="0" y="20" width="1200" height="6" />
      <rect x="80" y="0" width="4" height="30" />
      <rect x="140" y="0" width="4" height="30" />
      <rect x="200" y="0" width="4" height="30" />
      <rect x="60" y="-4" width="180" height="6" />
    </g></g>
    </g>
  </g>

  <!-- Big number pill -->
  <g transform="translate(80 100)">
    <circle cx="80" cy="80" r="80" fill="#0c3b46" />
    <text x="80" y="105" font-family="'Fraunces', serif" font-size="80" fill="#faf5ec" font-weight="900" text-anchor="middle">2</text>
  </g>
  <text x="240" y="150" font-family="'Hanken Grotesk', sans-serif" font-size="22" fill="#0c3b46" fill-opacity="0.75" letter-spacing="5" font-weight="700">2 / 4</text>
  <text x="240" y="195" font-family="'Fraunces', serif" font-size="34" fill="#0c3b46" font-weight="700">Permits &amp; Regulations</text>

  <!-- Title -->
  <text x="80" y="370" font-family="'Fraunces', serif" font-size="70" fill="#0c3b46" font-weight="700">
    <tspan x="80" dy="0">2. FDEP</tspan>
  </text>

  <!-- Body -->
  <text x="80" y="720" font-family="'Hanken Grotesk', sans-serif" font-size="32" fill="#0c3b46" fill-opacity="0.75" font-weight="500">
    <tspan x="80" dy="0">Florida DEP reviews docks over</tspan><tspan x="80" dy="44">sovereign submerged lands. Most</tspan><tspan x="80" dy="44">private single-family docks get</tspan><tspan x="80" dy="44">an exemption but still need to</tspan><tspan x="80" dy="44">file.</tspan>
  </text>

  <line x1="80" y1="960" x2="1000" y2="960" stroke="#0c3b46" stroke-opacity="0.25" stroke-width="2" />
  <text x="80" y="1010" font-family="'Hanken Grotesk', sans-serif" font-size="22" fill="#0c3b46" fill-opacity="0.7" font-weight="700">Keep swiping →</text>
  <text x="1000" y="1010" font-family="'Fraunces', serif" font-size="24" fill="#0c3b46" font-weight="700" text-anchor="end">MyDockGuide</text>
</svg>